<?xml version="1.0" encoding="UTF-8"?><svg id="Layer_1" xmlns="http://www.w3.org/2000/svg" xmlns:xlink="http://www.w3.org/1999/xlink" viewBox="0 0 5000 5000"><defs><linearGradient id="linear-gradient" x1="5387.38" y1="146.09" x2="7657.33" y2="46.7" gradientTransform="translate(9333.51 4689.1) rotate(-180) scale(1 -1)" gradientUnits="userSpaceOnUse"><stop offset="0" stop-color="#ef416c"/><stop offset="1" stop-color="#d3544e"/></linearGradient><linearGradient id="linear-gradient-2" x1="7801.23" y1="-332.63" x2="7620.43" y2="741.44" gradientTransform="translate(9333.51 4689.1) rotate(-180) scale(1 -1)" gradientUnits="userSpaceOnUse"><stop offset="0" stop-color="#e6138d"/><stop offset="1" stop-color="#e0188e"/></linearGradient><linearGradient id="linear-gradient-3" x1="7885.81" y1="-245.49" x2="9178.13" y2="-339.47" gradientTransform="translate(9333.51 4689.1) rotate(-180) scale(1 -1)" gradientUnits="userSpaceOnUse"><stop offset="0" stop-color="#9a4d9e"/><stop offset="1" stop-color="#9656a2"/></linearGradient><linearGradient id="linear-gradient-4" x1="9262.27" y1="1327.15" x2="7813.52" y2="-258.16" gradientTransform="translate(9333.51 4689.1) rotate(-180) scale(1 -1)" gradientUnits="userSpaceOnUse"><stop offset="0" stop-color="#bc3594"/><stop offset="1" stop-color="#983a96"/></linearGradient><linearGradient id="linear-gradient-5" x1="6678.89" y1="-1607.16" x2="5292.68" y2="19.8" gradientTransform="translate(9333.51 4689.1) rotate(-180) scale(1 -1)" gradientUnits="userSpaceOnUse"><stop offset="0" stop-color="#f68c43"/><stop offset="1" stop-color="#e67750"/></linearGradient><linearGradient id="linear-gradient-6" x1="6951.75" y1="-1374.68" x2="5565.55" y2="252.25" gradientTransform="translate(9333.51 4689.1) rotate(-180) scale(1 -1)" gradientUnits="userSpaceOnUse"><stop offset="0" stop-color="#ef4b66"/><stop offset="1" stop-color="#f04f64"/></linearGradient><linearGradient id="linear-gradient-7" x1="7783.85" y1="-665.7" x2="6397.66" y2="961.23" xlink:href="#linear-gradient-6"/><linearGradient id="linear-gradient-8" x1="7150.68" y1="-485.42" x2="9117.43" y2="-772.39" gradientTransform="translate(9333.51 4689.1) rotate(-180) scale(1 -1)" gradientUnits="userSpaceOnUse"><stop offset="0" stop-color="#ed1c80"/><stop offset="1" stop-color="#ee2970"/></linearGradient><linearGradient id="linear-gradient-9" x1="7261.8" y1="-860.81" x2="7805.29" y2="-109.1" gradientTransform="translate(9333.51 4689.1) rotate(-180) scale(1 -1)" gradientUnits="userSpaceOnUse"><stop offset="0" stop-color="#ed1586"/><stop offset="1" stop-color="#dc156f"/></linearGradient><linearGradient id="linear-gradient-10" x1="6895.2" y1="-1582.46" x2="7235.45" y2="-806.61" gradientTransform="translate(9333.51 4689.1) rotate(-180) scale(1 -1)" gradientUnits="userSpaceOnUse"><stop offset="0" stop-color="#ee3472"/><stop offset="1" stop-color="#ee4087"/></linearGradient><linearGradient id="linear-gradient-11" x1="7823.07" y1="-632.28" x2="6436.88" y2="994.64" xlink:href="#linear-gradient-6"/><linearGradient id="linear-gradient-12" x1="7134.19" y1="-768.55" x2="7677.68" y2="-16.84" xlink:href="#linear-gradient-9"/><linearGradient id="linear-gradient-13" x1="7880.44" y1="-319.31" x2="7850.68" y2="-142.57" xlink:href="#linear-gradient-2"/><linearGradient id="linear-gradient-14" x1="7830.14" y1="-311.96" x2="7930.71" y2="-326.64" xlink:href="#linear-gradient-8"/><linearGradient id="linear-gradient-15" x1="7837.28" y1="-378.99" x2="7923.58" y2="-259.63" xlink:href="#linear-gradient-9"/><linearGradient id="linear-gradient-16" x1="8342.68" y1="-288.27" x2="8248.41" y2="-914.32" gradientTransform="translate(9333.51 4689.1) rotate(-180) scale(1 -1)" gradientUnits="userSpaceOnUse"><stop offset="0" stop-color="#dc198e"/><stop offset="1" stop-color="#d32a91"/></linearGradient><linearGradient id="linear-gradient-17" x1="6458.64" y1="-2341.27" x2="6673.38" y2="-1503.08" gradientTransform="translate(9333.51 4689.1) rotate(-180) scale(1 -1)" gradientUnits="userSpaceOnUse"><stop offset="0" stop-color="#f0535b"/><stop offset="1" stop-color="#d6465b"/></linearGradient><linearGradient id="linear-gradient-18" x1="4639.98" y1="-1454.51" x2="6763.94" y2="-1623.57" gradientTransform="translate(9333.51 4689.1) rotate(-180) scale(1 -1)" gradientUnits="userSpaceOnUse"><stop offset="0" stop-color="#f4764a"/><stop offset="1" stop-color="#f68947"/></linearGradient><linearGradient id="linear-gradient-19" x1="6771.51" y1="-1528.24" x2="6534.58" y2="-1250.16" xlink:href="#linear-gradient-5"/><linearGradient id="linear-gradient-20" x1="6754.55" y1="-1594.38" x2="6788.44" y2="-1462.1" xlink:href="#linear-gradient-17"/><linearGradient id="linear-gradient-21" x1="6498.08" y1="-1506.46" x2="7044.85" y2="-1549.98" xlink:href="#linear-gradient-18"/><linearGradient id="linear-gradient-22" x1="6448.35" y1="-1773.36" x2="7976.92" y2="-1493.99" gradientTransform="translate(9333.51 4689.1) rotate(-180) scale(1 -1)" gradientUnits="userSpaceOnUse"><stop offset="0" stop-color="#ef3f6b"/><stop offset="1" stop-color="#f05a6d"/></linearGradient><linearGradient id="linear-gradient-23" x1="6811.27" y1="-1545.65" x2="7151.51" y2="-769.8" xlink:href="#linear-gradient-10"/><linearGradient id="linear-gradient-24" x1="7098.97" y1="-1249.23" x2="5712.78" y2="377.7" xlink:href="#linear-gradient-6"/><linearGradient id="linear-gradient-25" x1="6352.11" y1="-1246.75" x2="7880.67" y2="-967.38" xlink:href="#linear-gradient-22"/><linearGradient id="linear-gradient-26" x1="7078.93" y1="-741.03" x2="6523.91" y2="-2355.15" gradientTransform="translate(9333.51 4689.1) rotate(-180) scale(1 -1)" gradientUnits="userSpaceOnUse"><stop offset="0" stop-color="#f05560"/><stop offset="1" stop-color="#f15f4e"/></linearGradient><linearGradient id="linear-gradient-27" x1="6789.88" y1="-1536.27" x2="7130.12" y2="-760.43" xlink:href="#linear-gradient-10"/><linearGradient id="linear-gradient-28" x1="6959.11" y1="-1368.41" x2="5572.92" y2="258.52" xlink:href="#linear-gradient-6"/><linearGradient id="linear-gradient-29" x1="7078.92" y1="-741.03" x2="6523.9" y2="-2355.15" xlink:href="#linear-gradient-26"/><linearGradient id="linear-gradient-30" x1="9349.18" y1="-1295.93" x2="8356.01" y2="-2343.62" gradientTransform="translate(9333.51 4689.1) rotate(-180) scale(1 -1)" gradientUnits="userSpaceOnUse"><stop offset="0" stop-color="#d3248f"/><stop offset="1" stop-color="#b33895"/></linearGradient><linearGradient id="linear-gradient-31" x1="8588.63" y1="-1719.86" x2="7615.07" y2="-385.17" gradientTransform="translate(9333.51 4689.1) rotate(-180) scale(1 -1)" gradientUnits="userSpaceOnUse"><stop offset="0" stop-color="#ed1681"/><stop offset="1" stop-color="#cb2b91"/></linearGradient><linearGradient id="linear-gradient-32" x1="8720.33" y1="-3474.09" x2="7761.51" y2="-2367.56" gradientTransform="translate(9333.51 4689.1) rotate(-180) scale(1 -1)" gradientUnits="userSpaceOnUse"><stop offset="0" stop-color="#ed1382"/><stop offset="1" stop-color="#ed146c"/></linearGradient><linearGradient id="linear-gradient-33" x1="7975.17" y1="-2365.16" x2="7206.61" y2="-1659.07" gradientTransform="translate(9333.51 4689.1) rotate(-180) scale(1 -1)" gradientUnits="userSpaceOnUse"><stop offset="0" stop-color="#ee2c71"/><stop offset="1" stop-color="#ee417d"/></linearGradient><linearGradient id="linear-gradient-34" x1="9360.79" y1="-2919.12" x2="8401.98" y2="-1812.59" gradientTransform="translate(9333.51 4689.1) rotate(-180) scale(1 -1)" gradientUnits="userSpaceOnUse"><stop offset="0" stop-color="#e70f8b"/><stop offset="1" stop-color="#dc1178"/></linearGradient><linearGradient id="linear-gradient-35" x1="7934.37" y1="-3496.3" x2="7508.13" y2="-4108.86" gradientTransform="translate(9333.51 4689.1) rotate(-180) scale(1 -1)" gradientUnits="userSpaceOnUse"><stop offset="0" stop-color="#e81088"/><stop offset="1" stop-color="#d01481"/></linearGradient><linearGradient id="linear-gradient-36" x1="8636.24" y1="-4138.77" x2="7947.47" y2="-2761.4" gradientTransform="translate(9333.51 4689.1) rotate(-180) scale(1 -1)" gradientUnits="userSpaceOnUse"><stop offset="0" stop-color="#e4178e"/><stop offset="1" stop-color="#ca1780"/></linearGradient><linearGradient id="linear-gradient-37" x1="6286.85" y1="-4126.19" x2="8078.17" y2="-4557.48" gradientTransform="translate(9333.51 4689.1) rotate(-180) scale(1 -1)" gradientUnits="userSpaceOnUse"><stop offset="0" stop-color="#de1e8e"/><stop offset="1" stop-color="#e24498"/></linearGradient><linearGradient id="linear-gradient-38" x1="7442.96" y1="-4362.85" x2="7287.59" y2="-5382.03" gradientTransform="translate(9333.51 4689.1) rotate(-180) scale(1 -1)" gradientUnits="userSpaceOnUse"><stop offset="0" stop-color="#ca2d91"/><stop offset="1" stop-color="#c33c96"/></linearGradient><linearGradient id="linear-gradient-39" x1="5386.74" y1="131.52" x2="7656.69" y2="32.13" xlink:href="#linear-gradient"/><linearGradient id="linear-gradient-40" x1="6200.44" y1="-2014.81" x2="4814.22" y2="-387.86" xlink:href="#linear-gradient-5"/><linearGradient id="linear-gradient-41" x1="4796.78" y1="-1327.04" x2="4441.35" y2="322.56" gradientTransform="translate(9333.51 4689.1) rotate(-180) scale(1 -1)" gradientUnits="userSpaceOnUse"><stop offset="0" stop-color="#f6b929"/><stop offset="1" stop-color="#fec131"/></linearGradient><linearGradient id="linear-gradient-42" x1="7082.54" y1="-1263.24" x2="5696.35" y2="363.69" xlink:href="#linear-gradient-6"/><linearGradient id="linear-gradient-43" x1="2889.95" y1="-2158.84" x2="4635.65" y2="-1779.58" gradientTransform="translate(9333.51 4689.1) rotate(-180) scale(1 -1)" gradientUnits="userSpaceOnUse"><stop offset="0" stop-color="#f7c225"/><stop offset="1" stop-color="#f7d814"/></linearGradient><linearGradient id="linear-gradient-44" x1="5027.72" y1="-1342.37" x2="5054.06" y2="-1939.01" gradientTransform="translate(9333.51 4689.1) rotate(-180) scale(1 -1)" gradientUnits="userSpaceOnUse"><stop offset="0" stop-color="#f89b34"/><stop offset="1" stop-color="#e88b31"/></linearGradient><linearGradient id="linear-gradient-45" x1="4733.96" y1="-1939.6" x2="4357.62" y2="-544.14" gradientTransform="translate(9333.51 4689.1) rotate(-180) scale(1 -1)" gradientUnits="userSpaceOnUse"><stop offset="0" stop-color="#f7bc24"/><stop offset="1" stop-color="#ffc91e"/></linearGradient><linearGradient id="linear-gradient-46" x1="5926.33" y1="-2204.89" x2="6141.07" y2="-1366.7" xlink:href="#linear-gradient-17"/><linearGradient id="linear-gradient-47" x1="4608.14" y1="-1854.56" x2="6732.1" y2="-2023.62" xlink:href="#linear-gradient-18"/><linearGradient id="linear-gradient-48" x1="4604.03" y1="-3643.07" x2="4588.17" y2="-1956.6" gradientTransform="translate(9333.51 4689.1) rotate(-180) scale(1 -1)" gradientUnits="userSpaceOnUse"><stop offset="0" stop-color="#f37341"/><stop offset="1" stop-color="#f08441"/></linearGradient><linearGradient id="linear-gradient-49" x1="2944.59" y1="-2410.32" x2="4690.28" y2="-2031.05" gradientTransform="translate(9333.51 4689.1) rotate(-180) scale(1 -1)" gradientUnits="userSpaceOnUse"><stop offset="0" stop-color="#f68d36"/><stop offset="1" stop-color="#f58233"/></linearGradient><linearGradient id="linear-gradient-50" x1="4445.58" y1="-2005.4" x2="4902.16" y2="-1906.2" xlink:href="#linear-gradient-43"/><linearGradient id="linear-gradient-51" x1="4674.33" y1="-2001.43" x2="4673.47" y2="-1910.18" xlink:href="#linear-gradient-48"/><linearGradient id="linear-gradient-52" x1="4445.58" y1="-2005.4" x2="4902.16" y2="-1906.2" xlink:href="#linear-gradient-49"/><linearGradient id="linear-gradient-53" x1="4591.6" y1="-3122.28" x2="6520.06" y2="-2758.23" gradientTransform="translate(9333.51 4689.1) rotate(-180) scale(1 -1)" gradientUnits="userSpaceOnUse"><stop offset="0" stop-color="#f05452"/><stop offset="1" stop-color="#d73760"/></linearGradient><linearGradient id="linear-gradient-54" x1="5078.68" y1="-3638.61" x2="5062.83" y2="-1952.14" gradientTransform="translate(9333.51 4689.1) rotate(-180) scale(1 -1)" gradientUnits="userSpaceOnUse"><stop offset="0" stop-color="#f47940"/><stop offset="1" stop-color="#f1615b"/></linearGradient><linearGradient id="linear-gradient-55" x1="5447.69" y1="-2227.81" x2="5464.71" y2="-2613.27" xlink:href="#linear-gradient-44"/><linearGradient id="linear-gradient-56" x1="5259.96" y1="-2457.61" x2="5652.39" y2="-2383.53" xlink:href="#linear-gradient-53"/><linearGradient id="linear-gradient-57" x1="5457.94" y1="-2605.72" x2="5454.46" y2="-2235.45" xlink:href="#linear-gradient-54"/><linearGradient id="linear-gradient-58" x1="6512.44" y1="-2914.5" x2="7219.56" y2="-2708.84" gradientTransform="translate(9333.51 4689.1) rotate(-180) scale(1 -1)" gradientUnits="userSpaceOnUse"><stop offset="0" stop-color="#ee3765"/><stop offset="1" stop-color="#db4d5e"/></linearGradient><linearGradient id="linear-gradient-59" x1="6793.85" y1="-3040.19" x2="5631.84" y2="-2182.63" gradientTransform="translate(9333.51 4689.1) rotate(-180) scale(1 -1)" gradientUnits="userSpaceOnUse"><stop offset="0" stop-color="#f05555"/><stop offset="1" stop-color="#ef484e"/></linearGradient><linearGradient id="linear-gradient-60" x1="7341.08" y1="-3055.36" x2="6572.52" y2="-2349.28" xlink:href="#linear-gradient-33"/><linearGradient id="linear-gradient-61" x1="4243.84" y1="-3716.73" x2="5396.96" y2="-3663.19" gradientTransform="translate(9333.51 4689.1) rotate(-180) scale(1 -1)" gradientUnits="userSpaceOnUse"><stop offset="0" stop-color="#ee2668"/><stop offset="1" stop-color="#ed247e"/></linearGradient><linearGradient id="linear-gradient-62" x1="6851.81" y1="-3717.68" x2="6570.96" y2="-3310.82" gradientTransform="translate(9333.51 4689.1) rotate(-180) scale(1 -1)" gradientUnits="userSpaceOnUse"><stop offset="0" stop-color="#ed2070"/><stop offset="1" stop-color="#e41a51"/></linearGradient><linearGradient id="linear-gradient-63" x1="6090.38" y1="-4243.3" x2="5809.53" y2="-3836.44" xlink:href="#linear-gradient-62"/><linearGradient id="linear-gradient-64" x1="5406.29" y1="-3530.4" x2="4698.21" y2="-3490.77" gradientTransform="translate(9333.51 4689.1) rotate(-180) scale(1 -1)" gradientUnits="userSpaceOnUse"><stop offset="0" stop-color="#ee355e"/><stop offset="1" stop-color="#ed257b"/></linearGradient><linearGradient id="linear-gradient-65" x1="5422.92" y1="-3233.27" x2="4714.85" y2="-3193.64" xlink:href="#linear-gradient-64"/><linearGradient id="linear-gradient-66" x1="5975.26" y1="-3399.56" x2="7260.86" y2="-3156.86" xlink:href="#linear-gradient-53"/><linearGradient id="linear-gradient-67" x1="6899.31" y1="-3685.52" x2="6618.17" y2="-3278.24" xlink:href="#linear-gradient-62"/><linearGradient id="linear-gradient-68" x1="6618.22" y1="-3278.2" x2="6618.06" y2="-3278.19" xlink:href="#linear-gradient-64"/><linearGradient id="linear-gradient-69" x1="6618.21" y1="-3278.18" x2="6944.83" y2="-3183.18" xlink:href="#linear-gradient-58"/><linearGradient id="linear-gradient-70" x1="6661.31" y1="-3340.56" x2="6575.17" y2="-3215.78" xlink:href="#linear-gradient-62"/><linearGradient id="linear-gradient-71" x1="6618.25" y1="-3278.17" x2="6618.22" y2="-3278.17" xlink:href="#linear-gradient-64"/><linearGradient id="linear-gradient-72" x1="6618.22" y1="-3278.18" x2="6454.93" y2="-3157.67" xlink:href="#linear-gradient-59"/><linearGradient id="linear-gradient-73" x1="6669.48" y1="-3352.45" x2="6566.96" y2="-3203.92" xlink:href="#linear-gradient-62"/><linearGradient id="linear-gradient-74" x1="6618.22" y1="-3278.17" x2="6618.2" y2="-3278.17" xlink:href="#linear-gradient-64"/><linearGradient id="linear-gradient-75" x1="7106.41" y1="-3541.93" x2="6825.55" y2="-3135.06" gradientTransform="translate(9333.51 4689.1) rotate(-180) scale(1 -1)" gradientUnits="userSpaceOnUse"><stop offset="0" stop-color="#ed1d73"/><stop offset="1" stop-color="#ed2271"/></linearGradient><linearGradient id="linear-gradient-76" x1="6017.65" y1="-5062.31" x2="5348.13" y2="-3706.37" gradientTransform="translate(9333.51 4689.1) rotate(-180) scale(1 -1)" gradientUnits="userSpaceOnUse"><stop offset="0" stop-color="#ed1a75"/><stop offset="1" stop-color="#d52855"/></linearGradient><linearGradient id="linear-gradient-77" x1="5233.1" y1="-3710.96" x2="5577.56" y2="-5659.32" gradientTransform="translate(9333.51 4689.1) rotate(-180) scale(1 -1)" gradientUnits="userSpaceOnUse"><stop offset="0" stop-color="#ee286a"/><stop offset="1" stop-color="#ed1b69"/></linearGradient><linearGradient id="linear-gradient-78" x1="5397.81" y1="-3681.86" x2="5114.65" y2="-3666.01" xlink:href="#linear-gradient-64"/><linearGradient id="linear-gradient-79" x1="5460.74" y1="-3809.3" x2="5334.91" y2="-3554.45" xlink:href="#linear-gradient-76"/><linearGradient id="linear-gradient-80" x1="5397.81" y1="-3681.84" x2="5437.27" y2="-3905.03" xlink:href="#linear-gradient-77"/><linearGradient id="linear-gradient-81" x1="6232.66" y1="-4351.26" x2="8023.98" y2="-4782.55" xlink:href="#linear-gradient-37"/><linearGradient id="linear-gradient-82" x1="5396.98" y1="-4078.38" x2="6898.25" y2="-4081.54" gradientTransform="translate(9333.51 4689.1) rotate(-180) scale(1 -1)" gradientUnits="userSpaceOnUse"><stop offset="0" stop-color="#ed206f"/><stop offset="1" stop-color="#ee306b"/></linearGradient></defs><path d="m2167.08,4804.73v-94.87l-454.83-19.9c145.67,52.4,297.34,92.21,454.83,114.77Z" fill="url(#linear-gradient)" stroke-width="0"/><path d="m1453.07,4369.81l38.21,226.93c57.3,27.62,115.84,52.74,175.63,75.69l-213.83-302.63h-.01Z" fill="url(#linear-gradient-2)" stroke-width="0"/><path d="m1453.07,4369.79l-374.29-27.22c78.52,60.62,161.08,116.04,247.1,166.4l127.19-139.19Z" fill="url(#linear-gradient-3)" stroke-width="0"/><path d="m1453.07,4369.81v-.02l-127.19,139.19c53.79,31.49,108.99,60.59,165.41,87.77l-38.21-226.93h0Z" fill="url(#linear-gradient-4)" stroke-width="0"/><path d="m2562.04,3160.89h-.06s271.3,318.39,271.3,318.39c48.92-61.76,75.43-139,75.43-230.03,0-21.11-1.48-41.23-3.69-61.07l-342.98-27.31h-.01Z" fill="url(#linear-gradient-5)" stroke-width="0"/><path d="m2350.61,3642.94c13.27.48,26.99,2.98,40.11,2.98,205.51,0,358.01-59.86,442.56-166.64l-271.3-318.4-211.37,482.06Z" fill="url(#linear-gradient-6)" stroke-width="0"/><path d="m1712.25,4689.96l454.83,19.9v-459.11c-52.1-5.54-103.74-14.55-155.04-23.9l-327.2,452.52c9.18,3.43,18.16,7.27,27.4,10.6Z" fill="url(#linear-gradient-7)" stroke-width="0"/><path d="m1453.09,4369.8l343.4-193.43c-122.91-36.95-232.84-83.84-314.48-138.16l-86.55-57.61,47.47-157.47-947.15-138.21c36.76,62.02,75.93,122.4,118.11,180.53l839.19,504.34h.01Z" fill="url(#linear-gradient-8)" stroke-width="0"/><path d="m1666.92,4672.43c5.63,2.16,11.22,4.4,16.87,6.52l268.02-463.31c-53.29-11.34-105.49-24.3-155.32-39.28l-343.4,193.43,213.83,302.63Z" fill="url(#linear-gradient-9)" stroke-width="0"/><path d="m1684.85,4679.36l327.2-452.52c-20.27-3.7-40.27-6.96-60.23-11.2l-268.02,463.31c.35.13.71.27,1.06.41Z" fill="url(#linear-gradient-10)" stroke-width="0"/><path d="m1684.85,4679.36l327.2-452.52c-20.27-3.7-40.27-6.96-60.23-11.2l-268.02,463.31c.35.13.71.27,1.06.41Z" fill="url(#linear-gradient-11)" stroke-width="0"/><path d="m1684.85,4679.36l327.2-452.52c-20.27-3.7-40.27-6.96-60.23-11.2l-268.02,463.31c.35.13.71.27,1.06.41Z" fill="url(#linear-gradient-12)" stroke-width="0"/><polygon points="1453.09 4369.8 1453.07 4369.79 1453.07 4369.81 1453.09 4369.8" fill="url(#linear-gradient-13)" stroke-width="0"/><polygon points="1453.09 4369.8 1453.07 4369.79 1453.07 4369.81 1453.09 4369.8" fill="url(#linear-gradient-14)" stroke-width="0"/><polygon points="1453.09 4369.8 1453.07 4369.79 1453.07 4369.81 1453.09 4369.8" fill="url(#linear-gradient-15)" stroke-width="0"/><path d="m613.88,3865.45c131.11,180.71,288.31,340.79,464.9,477.13l374.29,27.22-839.19-504.34Z" fill="url(#linear-gradient-16)" stroke-width="0"/><path d="m2562.05,3160.87l253.12-171.74c-40.22-43.39-98.61-85.64-176.29-128.36l-76.9,300.09h.07Z" fill="url(#linear-gradient-17)" stroke-width="0"/><path d="m2905.03,3188.18c-8.02-72.18-32.36-137-89.86-199.04l-253.12,171.74,342.98,27.31Z" fill="url(#linear-gradient-18)" stroke-width="0"/><polygon points="2562.05 3160.87 2561.98 3160.87 2562.04 3160.89 2562.05 3160.87" fill="url(#linear-gradient-19)" stroke-width="0"/><polygon points="2562.05 3160.87 2561.98 3160.87 2562.04 3160.89 2562.05 3160.87" fill="url(#linear-gradient-20)" stroke-width="0"/><polygon points="2562.05 3160.87 2561.98 3160.87 2562.04 3160.89 2562.05 3160.87" fill="url(#linear-gradient-21)" stroke-width="0"/><path d="m1947.25,3560.43c109.41,40.75,224.5,67.23,338.64,77.7l95.09-164.37,217.83-633.55c-55.45-28.11-117.06-56.44-193.19-85.75-212.3-75.24-384.57-165.16-522.93-268.35l-634.47,115.99,699.03,958.33Z" fill="url(#linear-gradient-22)" stroke-width="0"/><path d="m2285.89,3638.13c12.6,1.15,25.09,2.06,37.61,2.8l57.48-167.17-95.09,164.37Z" fill="url(#linear-gradient-23)" stroke-width="0"/><path d="m2285.89,3638.13c12.6,1.15,25.09,2.06,37.61,2.8l57.48-167.17-95.09,164.37Z" fill="url(#linear-gradient-24)" stroke-width="0"/><path d="m2285.89,3638.13c12.6,1.15,25.09,2.06,37.61,2.8l57.48-167.17-95.09,164.37Z" fill="url(#linear-gradient-25)" stroke-width="0"/><path d="m2561.98,3160.87l76.9-300.09c-12.41-6.83-26.53-13.72-40.06-20.57l-217.83,633.55,181-312.88Z" fill="url(#linear-gradient-26)" stroke-width="0"/><path d="m2380.98,3473.76l-57.48,167.17c9.02.54,18.14,1.69,27.11,2.01l211.37-482.06-181,312.88Z" fill="url(#linear-gradient-27)" stroke-width="0"/><path d="m2380.98,3473.76l-57.48,167.17c9.02.54,18.14,1.69,27.11,2.01l211.37-482.06-181,312.88Z" fill="url(#linear-gradient-28)" stroke-width="0"/><path d="m2380.98,3473.76l-57.48,167.17c9.02.54,18.14,1.69,27.11,2.01l211.37-482.06-181,312.88Z" fill="url(#linear-gradient-29)" stroke-width="0"/><path d="m177.94,2646.74c18.97,303.79,94.84,591.9,219.28,853.03l851-897.68-1070.28,44.64Z" fill="url(#linear-gradient-30)" stroke-width="0"/><path d="m1580.76,3365.81l155.08,95.43c64.47,39.65,136.82,71.41,211.41,99.19l-699.03-958.33-851,897.68c30.17,63.33,62.99,125.13,98.55,185.14l947.15,138.21,137.84-457.32Z" fill="url(#linear-gradient-31)" stroke-width="0"/><path d="m1248.22,2602.06l342.42-444.02c-68.65-127.81-105.81-268.71-105.81-425.97,0-51.9,4.32-102.36,12.01-151.49l-1100.85-77.52c-11.96,25.18-22.36,51.21-33.44,76.89l885.67,1022.15v-.03Z" fill="url(#linear-gradient-32)" stroke-width="0"/><path d="m1248.22,2602.1l634.47-115.99c-129.41-96.52-226.38-205.83-292.05-328.06l-342.42,444.02v.03Z" fill="url(#linear-gradient-33)" stroke-width="0"/><path d="m362.55,1579.95c-121.84,282.51-191.37,592.85-191.37,920.1,0,49.47,3.72,98,6.76,146.7l1070.28-44.64-885.67-1022.15Z" fill="url(#linear-gradient-34)" stroke-width="0"/><path d="m2164.11,818.63l-633.74-434.69c-37.64,17.28-74.65,35.68-111.18,54.88l324.55,648.97c111.43-116.32,253.25-209.15,420.38-269.15Z" fill="url(#linear-gradient-35)" stroke-width="0"/><path d="m1743.73,1087.79l-324.55-648.97c-445.98,234.24-806.54,607.98-1023.2,1064.24l1100.85,77.52c29.89-190.64,117.51-357.73,246.9-492.8Z" fill="url(#linear-gradient-36)" stroke-width="0"/><path d="m2167.08,195.25c-51.5,7.38-101.79,18.26-152.14,28.94l152.14,282.84V195.25Z" fill="url(#linear-gradient-37)" stroke-width="0"/><path d="m2167.08,817.36v-310.33l-152.14-282.84c-169.04,35.87-331.26,89.41-484.57,159.75l633.74,434.69c1.04-.38,1.93-.91,2.97-1.28Z" fill="url(#linear-gradient-38)" stroke-width="0"/><path d="m2832.94,4804.73c88.56-12.68,174.8-32.02,259.85-54.37l-259.85-11.38v65.75Z" fill="url(#linear-gradient-39)" stroke-width="0"/><path d="m3252.45,3971.2l445.73,523.12c348.15-209.54,636.41-506.83,834.84-862.19l86.83-171.6c19.7-43.4,39.76-86.6,56.83-131.36l-1074.17-85.48c-7.14,270.06-121.44,535.16-350.06,727.52Z" fill="url(#linear-gradient-40)" stroke-width="0"/><path d="m4619.85,3460.53l-86.83,171.6c31.2-55.88,60.22-113.01,86.83-171.6Z" fill="url(#linear-gradient-41)" stroke-width="0"/><path d="m2832.94,4194.36v544.62l259.85,11.38c215.81-56.7,418.85-143.75,605.4-256.03l-445.73-523.12c-112.47,94.63-249.86,173.2-419.51,223.15Z" fill="url(#linear-gradient-42)" stroke-width="0"/><path d="m4659.63,2733.31h-.05l94.03,348.63c32-124.24,54.96-252.03,66.06-383.41l-160.03,34.77h-.01Z" fill="url(#linear-gradient-43)" stroke-width="0"/><path d="m3877.34,2268.55h0s-.06-.03-.06-.03l802.04,1052.7c2.06-5.44,3.51-11.17,5.53-16.64l-25.26-571.27-782.25-464.76Z" fill="url(#linear-gradient-44)" stroke-width="0"/><path d="m4659.58,2733.31l25.26,571.27c26.72-72.52,49.25-146.92,68.76-222.64l-94.03-348.63Z" fill="url(#linear-gradient-45)" stroke-width="0"/><path d="m3037.02,2309.85c135.6,75.21,257.3,169.85,354.92,287.96l485.34-329.3-840.26,41.33Z" fill="url(#linear-gradient-46)" stroke-width="0"/><path d="m3391.94,2597.82c127.99,154.84,212.61,351.99,212.61,618.59,0,9.13-1.8,18.16-2.04,27.28l1074.17,85.48c.99-2.6,1.66-5.34,2.64-7.95l-802.04-1052.7-485.34,329.3Z" fill="url(#linear-gradient-47)" stroke-width="0"/><path d="m4659.64,2733.3l167.37-193.99c.22-13.19,1.8-26.03,1.8-39.26,0-316.97-65.12-618.17-179.82-893.55l10.59,1126.82h.06Z" fill="url(#linear-gradient-48)" stroke-width="0"/><path d="m4819.67,2698.54c4.44-52.54,6.45-105.75,7.34-159.23l-167.37,193.99,160.03-34.77Z" fill="url(#linear-gradient-49)" stroke-width="0"/><polygon points="4659.64 2733.3 4659.58 2733.31 4659.63 2733.31 4659.64 2733.3" fill="url(#linear-gradient-50)" stroke-width="0"/><polygon points="4659.64 2733.3 4659.58 2733.31 4659.63 2733.31 4659.64 2733.3" fill="url(#linear-gradient-51)" stroke-width="0"/><polygon points="4659.64 2733.3 4659.58 2733.31 4659.63 2733.31 4659.64 2733.3" fill="url(#linear-gradient-52)" stroke-width="0"/><path d="m2715.32,1410.93l1161.97,857.59.06.03,613.09-977.31c-40.2-66.04-84.31-129.28-130.68-190.78l-957.75,180.81-96.23,284.84-146.53-79.75c-69.38-37.63-169.45-78-290.5-104.41l-153.29,28.94-.14.05Z" fill="url(#linear-gradient-53)" stroke-width="0"/><path d="m4659.58,2733.31l-10.59-1126.82c-45.52-109.3-97.61-215.13-158.57-315.25l-613.09,977.31,782.25,464.76Z" fill="url(#linear-gradient-54)" stroke-width="0"/><polygon points="3877.34 2268.57 3877.34 2268.55 3877.28 2268.52 3877.34 2268.57" fill="url(#linear-gradient-55)" stroke-width="0"/><polygon points="3877.34 2268.57 3877.34 2268.55 3877.28 2268.52 3877.34 2268.57" fill="url(#linear-gradient-56)" stroke-width="0"/><polygon points="3877.34 2268.57 3877.34 2268.55 3877.28 2268.52 3877.34 2268.57" fill="url(#linear-gradient-57)" stroke-width="0"/><path d="m2715.26,1410.95l.03-.03-509.87,148.31c-19.54,41.32-29.34,84.62-29.34,126.27,0,34.34,4.44,65.9,12.14,96.48l314.53,288.95c59.78,28.92,126.45,58.63,209.25,90.7,18.54,7.15,36.92,15.53,55.46,23.01l-52.17-773.7h-.03Z" fill="url(#linear-gradient-58)" stroke-width="0"/><path d="m2715.32,1410.93h-.02s52.17,773.72,52.17,773.72c91.58,36.95,182.9,77.15,269.55,125.21l840.26-41.33-1161.97-857.59Z" fill="url(#linear-gradient-59)" stroke-width="0"/><path d="m2502.75,2070.93l-314.53-288.95c25.66,102.05,107.36,188.71,314.53,288.95Z" fill="url(#linear-gradient-60)" stroke-width="0"/><path d="m3935.71,1007.24l365.82,20.45c-9.76-11.92-18.89-24.37-28.88-36.1l-336.94,15.65h0Z" fill="url(#linear-gradient-61)" stroke-width="0"/><path d="m2715.45,1410.88l113.48-37.54c-46.88-8.43-97.24-13.27-150.38-15.65l36.74,53.22.16-.03Z" fill="url(#linear-gradient-62)" stroke-width="0"/><polygon points="3494.9 1006.3 3439.09 1171.5 3935.68 1007.24 3494.9 1006.3" fill="url(#linear-gradient-63)" stroke-width="0"/><path d="m4301.53,1027.69l-365.82-20.45v.02l-.03-.02-496.59,164.27-37.08,109.77,957.75-180.81c-18.72-24.82-38.55-48.72-58.22-72.76Z" fill="url(#linear-gradient-64)" stroke-width="0"/><path d="m2868.74,1381.94c-13.28-2.9-25.97-6.11-39.81-8.6l-113.48,37.54,153.29-28.94Z" fill="url(#linear-gradient-65)" stroke-width="0"/><polygon points="2715.29 1410.92 2715.32 1410.93 2715.45 1410.88 2715.29 1410.92" fill="url(#linear-gradient-66)" stroke-width="0"/><polygon points="2715.29 1410.92 2715.32 1410.93 2715.45 1410.88 2715.29 1410.92" fill="url(#linear-gradient-67)" stroke-width="0"/><polygon points="2715.29 1410.92 2715.32 1410.93 2715.45 1410.88 2715.29 1410.92" fill="url(#linear-gradient-68)" stroke-width="0"/><polygon points="2715.26 1410.95 2715.29 1410.94 2715.29 1410.92 2715.26 1410.95" fill="url(#linear-gradient-69)" stroke-width="0"/><polygon points="2715.26 1410.95 2715.29 1410.94 2715.29 1410.92 2715.26 1410.95" fill="url(#linear-gradient-70)" stroke-width="0"/><polygon points="2715.26 1410.95 2715.29 1410.94 2715.29 1410.92 2715.26 1410.95" fill="url(#linear-gradient-71)" stroke-width="0"/><polygon points="2715.29 1410.94 2715.32 1410.93 2715.29 1410.92 2715.29 1410.94" fill="url(#linear-gradient-72)" stroke-width="0"/><polygon points="2715.29 1410.94 2715.32 1410.93 2715.29 1410.92 2715.29 1410.94" fill="url(#linear-gradient-73)" stroke-width="0"/><polygon points="2715.29 1410.94 2715.32 1410.93 2715.29 1410.92 2715.29 1410.94" fill="url(#linear-gradient-74)" stroke-width="0"/><path d="m2678.55,1357.7c-17.02-.77-32.13-3.63-49.76-3.63-243.22,0-371.17,94.76-423.37,205.16l509.87-148.31-36.74-53.22Z" fill="url(#linear-gradient-75)" stroke-width="0"/><path d="m3935.71,1007.24l-68.95-389.91c-59.07-42.94-120.03-83.17-183.11-120.51l252.02,510.42h.03Z" fill="url(#linear-gradient-76)" stroke-width="0"/><path d="m4272.65,991.59c-119.7-140.48-256.33-265.55-405.88-374.26l68.95,389.91,336.94-15.65Z" fill="url(#linear-gradient-77)" stroke-width="0"/><polygon points="3935.71 1007.26 3935.71 1007.24 3935.68 1007.24 3935.71 1007.26" fill="url(#linear-gradient-78)" stroke-width="0"/><polygon points="3935.71 1007.26 3935.71 1007.24 3935.68 1007.24 3935.71 1007.26" fill="url(#linear-gradient-79)" stroke-width="0"/><polygon points="3935.71 1007.26 3935.71 1007.24 3935.68 1007.24 3935.71 1007.26" fill="url(#linear-gradient-80)" stroke-width="0"/><path d="m2832.94,195.25v160.65l88.43-143.82c-29.55-5.41-58.5-12.54-88.43-16.82Z" fill="url(#linear-gradient-81)" stroke-width="0"/><path d="m3683.65,496.82c-231.45-137-488.31-234.56-762.28-284.74l-88.43,143.82v391.33c290.29,26.85,480.13,109.43,574.26,162.67l100.97,57.14-13.27,39.26,440.78.94-252.02-510.42Z" fill="url(#linear-gradient-82)" stroke-width="0"/></svg>